<svg width="76" height="114" viewBox="0 0 76 114" fill="none" xmlns="http://www.w3.org/2000/svg">
<path d="M53.6008 111.3C53.6008 111.3 9.99989 107.054 6.29292 95.7567C2.58596 84.4598 19.0148 28.3994 19.0148 28.3994C19.0148 28.3994 15.1708 11.6655 18.7649 10.2965C22.3589 8.92761 25.4835 25.3085 25.4835 25.3085C25.4835 25.3085 25.4476 3.21353 28.8786 3.64728C32.3096 4.08103 33.6632 22.8959 33.6632 22.8959C33.6632 22.8959 38.6765 15.2827 46.7702 18.852C52.6854 21.4589 53.0885 28.2297 50.7982 28.8782C47.514 29.8025 46.1186 24.9935 42.6393 25.6468C40.0007 26.1393 39.0895 29.0395 39.6219 31.3136C40.3525 34.4274 43.0823 36.1189 46.0285 34.5651C48.6316 33.194 47.9704 29.7171 50.7982 28.8782C54.1687 27.8833 56.0222 35.6407 50.6537 40.5941C45.635 45.2174 36.4384 42.388 36.4384 42.388L29.8808 78.7399L62.9729 85.6875" stroke="#2C3FEE" stroke-width="2" stroke-miterlimit="10"/>
</svg>
