<svg width="85" height="117" viewBox="0 0 85 117" fill="none" xmlns="http://www.w3.org/2000/svg">
<path d="M32.7648 114.073C32.7648 114.073 75.7667 105.694 78.3776 94.096C80.9884 82.4984 59.2994 28.2562 59.2994 28.2562C59.2994 28.2562 61.5148 11.2371 57.8243 10.2119C54.1339 9.18662 52.5657 25.7953 52.5657 25.7953C52.5657 25.7953 50.4975 3.7974 47.1234 4.5559C43.7493 5.3144 44.1935 24.1727 44.1935 24.1727C44.1935 24.1727 38.478 17.0715 30.7609 21.3953C25.1244 24.5526 25.3644 31.3321 27.706 31.7595C31.0633 32.3668 31.9944 27.4468 35.5201 27.7658C38.1937 28.0048 39.3769 30.805 39.0634 33.1196C38.6326 36.2888 36.0799 38.2316 32.9956 36.9663C30.2728 35.8458 30.6008 32.3253 27.706 31.7595C24.256 31.09 23.1497 38.9887 28.9645 43.4049C34.4017 47.5328 42.8343 43.5687 42.8343 43.5687L52.8237 79.131L20.5436 89.1983" stroke="#9130DE" stroke-width="2" stroke-miterlimit="10"/>
</svg>
